<svg xmlns="http://www.w3.org/2000/svg" viewBox="0 0 485 485" style="width: 6em; height: 6em;"><g><linearGradient id="SVGID_1_" gradientUnits="userSpaceOnUse" x1="2.5" y1="242.5" x2="482.5" y2="242.5"><stop offset="0" style="stop-color: rgb(51, 153, 204);"></stop><stop offset="1" style="stop-color: rgb(36, 107, 143);"></stop></linearGradient><circle cx="242.5" cy="242.5" r="240" style="fill: url(&quot;#SVGID_1_&quot;);"></circle><circle stroke-width="8px" cx="242.5" cy="242.5" r="240" style="fill: none; stroke: rgb(51, 51, 51);"></circle></g><g><path d="M74.3,149.9c3.6-2.1,7.2-4.2,10.7-6.4c5.2-3.2,6.1-6.2,5-12.7c-1.2-7-4.5-13-7.6-19.3c-0.8-1.7-1.8-3.3-2.4-5.1c-0.4-1.1-0.9-2.6,0.2-3.6c1-0.9,2.5-0.7,3.5,0c4.3,3,7.4,1.6,10.2-2.2c2.3-3.2,6.3-4.2,9.7-5c4-0.9,7.5-2.7,10.9-4.7c2.6-1.5,4.5-0.8,6.2,0.8c2.8,2.8,5.4,5.9,8.1,8.8c-0.9,4.1-5.5,0.1-7.1,3.3c3.1,0.5,6.3,2,8.8,1.3c4.3-1.2,5.3,0.6,5.9,4c0.3,2.7-1.7,4.6-2.6,6.9c-2.8,7.2-1.2,9.6,6.5,9.3c2.1-0.1,4-0.6,5.6-2c2.5-0.1,5-0.1,7.5-0.2c1.1,0.6,2.2,1.2,3.2,1.9c4.6,3.3,9.1,4.6,13.9,0.1c1.9-1.8,4.3-2.6,6.5,0c2,2.3,0.9,3.9-0.6,6c-1.9,2.9,0.4,5.1,2.6,6.6c2.9,2,4.6,4.7,6.4,7.6c3.2,5.1,1,10.2,0.6,15.4c-0.1,1.7-0.6,3.4-0.8,5.1c-0.3,2.4,1.1,4,3.2,4.4c2.2,0.4,4.4-1.2,4.5-3.1c0.3-9.5,4.6-19.8-5.2-27.3c-0.4-0.3-0.5-1.2-0.9-1.6c-6.4-6.4-4.6-8.7,1.3-15.2c2.8-3.1,7-4.2,9-8.4c1.7-3.7,2.1-6.9,0.4-10.5c-0.7-1.5-1.4-3,1-3.6c1.4-0.1,3.5,0.7,3.7-1.5c0.2-2.4-1.5-3.7-3.9-4c-5.5,0.7-9.6-2.8-14.3-4.6c-5.2-2-6.4-1.7-8.3,3.2c-0.4,1-1.1,1.6-2,1.8c-1.3,0.2-2.5-0.3-3.1-1.5c-0.6-1.1-0.9-2.3-1.2-3.5c-0.4-1.5-0.4-3.2-2.6-3.2c-1.9-0.1-2.4,1.4-2.8,2.6c-0.5,1.5-0.6,3.1-2.7,3.2c-2.1,0-2.9-1.7-3.7-3.1c-4.2-7.4-2.3-14.7,0.4-22c2.3-6.3,6.2-10.7,12.9-12.8c4-1.2,7.7-3.7,11.6-5.5c2.7,0.5,3.6-1.9,5.2-3.2c0.8-0.6,1.4-2.1,2.6-1.7c1.6,0.5,0.6,2.1,0.9,3.2c-0.2,1.5-1.9,3.3,0.4,4.5c2.1,1,3-0.8,4.2-2c4.7-4.6,9.6-8.6,16.7-8.5c3.7,0.1,7,0.8,9.9,3.3c2.4,2.1,4.9,2.5,6.5-1.1c1.9-0.6,3.2-1.8,4-3.7c0.2,0,0.4,0,0.6-0.1c2.8-0.8,5.6-0.6,8.4,0.1c0,0,0,0,0,0c0.3,2.8,2.6,1.2,3.9,1.8c0.1,1.6-0.1,2.9-1.3,4.3c-1.1,1.3-1.2,3,1.3,3.2c0.6,0,1.2-0.1,1.9-0.1c7.1-0.1,13,3.8,19.4,6c7.9,2.7,16.1,4.2,23.7,7.6c7.5,3.3,15.1,6.4,23,8.4c5.6,1.4,11.1,3.5,16.7,4.7c2.8,3.1,6.4,1.1,9.6,1.8c0.6,0.6,1.2,1.3,1.8,1.9c-0.4,1.2,1.1,2.9-0.9,3.6c-1.6,0.6-2.4-0.8-3.5-1.6c-1.3-0.9-2.6-3.4-4.5-0.9c-1.4,1.9-1,3.9,0.7,5.5c0.8,0.7,1.8,1.2,2.7,1.8c3.6,4,8.8,4.9,13.4,6.3c9,2.7,14.8,9.4,19.4,16.4c5.5,8.4,11,16.6,17.3,24.4c1.4,1.7,4.3,4.6,2.2,5.8c-2.3,1.2-3.3,5.2-7.9,3.6c-3.6-1.3-8.3,1.1-10.7,4.8c-2.2,3.6-5.4,4.2-9,4.5c-0.9,0.1-1.9,0.2-2.8,0.1c-7.3-1.1-12.3,1.2-14.3,8.8c-0.3,1.3-1.3,2.4-2,3.5c-1.8,0.2-2.4,2.6-4.7,2.1c-3.5-0.8-4.5,1.6-4.6,4.6c-3.2,4.5-6.9,8.9-5.8,15.1c0.6,3.2-3.1,6-1.5,9c1.8,3.2,0.9,5.6-0.1,8.7c-1.5,4.8-4,7.1-9.2,8.1c-3.1,0.6-5.5,1.1-8.6-0.1c-2.3-0.9-5-0.4-7,2.3c-2.8,3.9-6,4.2-10.2,1.8c-1.3-0.7-2.7-0.9-4.1-0.9c-3.6,0-7.3,0.3-10.8-0.1c-5.1-0.5-9.4,0-11.8,5.2c-0.2,0.5-0.9,1-1.5,1.1c-6.5,1.2-11.5,5.8-17.8,7.4c-6.1,1.5-10.5,6-15,9.7c-5.1,4.2-10.1,8.1-16.5,10.1c-3.6,1.1-3.2,2.1-0.6,4.8c6.9,7.1,15.1,9.1,24.6,8.4c6.8-0.5,12.7,2.5,18.5,5.6c0.8,0.4,1.7,0.6,2.6,0.9c2,5.3,7.4,8.9,8.1,15c0,0.1,0.3,0.1,0.4,0.2c1,3,3.5,1.9,5.4,1.8c3.5-0.1,7-0.5,10.4,1.1c4,1.9,6.1,4.5,4.8,9.1c-1.4,4.3-4.1,7.5-8.4,8.5c-3.3,0.8-6.5,2-9.7,3.1c-2.9,1-6.7,3.3-8.6,2.3c-5.1-2.7-8,1.4-11.9,2.2c-0.3-0.1-0.6,0-0.9,0.2c-2.6,1.8-2.6,3.6,0,5.4l0.1,0.1c1,2.8,3.1,1.4,4.6,0.9c4.8-1.4,9.5-3.1,14.2-4.7l0,0c0.4,0.6,1.3,1.3,0.7,2c-2.7,3.8-5,8.1-10.1,9.4c-2.3,0.6-4.4,1.5-5.7,3.7l0,0c-1.2,0.1-2.9-0.3-3.3,1.1c-1,3.4-3.9,3.9-6.4,5.2c-2.7,1.3-6,1.8-7.5,4.9c-5.2-0.1-10.5-0.4-12.9,5.8c-0.3,0.8-1.3,1.2-2,1.8c-1.8,0.3-4.6-3.7-4.6-0.8c-0.1,4.1-1,3-3,1.6c-1.2-0.8-2.5-1.2-3.2,0.1c-0.9,1.6,0.2,2.3,1.7,3c1.4,0.6,4.6,1.7,2.1,3.7c-2.9,2.3-1,8.8-7.2,8c-0.8-0.1-0.8,1.5-0.8,2.5c0,1.4-0.2,2.5-1.9,2.7l0,0c-0.5-1,1.1-3.5-1.5-2.9c-1.6,0.3-2.5,2.2-2.3,4.2c0.1,1.8,0.9,2.3,2.6,2.5c4,0.5,5.5-1.1,5-5c-0.2-1.6,0.5-2.9,2.4-2.4c1.8,0.5,0.8,1.8,0.3,2.6c-1.4,2.9-1.4,4.9,2.6,4.8c1.6,0,2.1,1.1,2.1,2.5c0.1,5.1,3.9,2.9,6.2,3c3.4,0.2,1-2.4,1.4-3.7c0.2-0.6,0.1-1.3,1.3-1.3c0.5,3.4,3.4,4.2,6.1,5c3.6,1,4.8-2.4,6.7-4.4c0.4,0.6,0.6,0.8,0.7,1.1c0.3,1.4-0.2,3.9,2.2,3.2c3.1-0.9-1-2.2-0.2-3.5c0.3-0.5,0-1.2,0-1.9l0.1-0.1c1.7-0.2,2.4-1.6,1.5-2.6c-2.8-3.2-1.1-5.9,0.3-8.8c2.7-3.9,6.8-6.2,10.3-9.1c6.6-5.5,13.7-10.5,16.6-19.2c0.7-2,1.8-4.1,4.7-4.5c1.3-0.2,3.2-1.4,2.9-3.6c-0.5-4.7,1.6-7.8,6.1-8.6c2.8-0.5,5-1.5,6.6-3.8l0,0c1.2-0.1,2.5-0.1,3.7-0.2c4-0.6,7.5,1.7,11.3,2.2c0.9,0.1,1.5,0.7,1.6,1.5c0.6,5.5,4.8,8.6,8,12.3c1.1,1.3,1.9,2.6,2.6,4.1c2.3,2.9,4,6.5,8.6,6.4c2.4,2.5,2.3,4.8-0.2,7.2c-3.9,3.7-6.1,9.1-11.1,11.8c-1.2,0-1.9,0.5-2,1.7l0,0c-4,1-7.3,3.7-11.3,5c-2.9,0.9-6.2-0.6-8,1c-4.8,4-10.6,2.8-15.8,4.4c-2.1,0.6-3.6,0.8-5.2-0.3c-6.6-4.4-14-1.8-21-2.3c-1.8-0.1-2.6,1-2.3,2.7c0.3,1.6,1.5,2,2.8,1.5c1.7-0.6,3.3-0.7,5-0.1c6.8,2.3,13.8,4.3,21,3.7c4.9-0.4,10.8,1.1,14.5-2.4c4.2-3.9,8.6-3.4,13.3-3.6c1.9-0.1,4.2,0.9,5.3-1.7c0.6,0,1.2-0.1,1.8-0.1c6.6,1,7.3,1.9,5.7,7.6c-3.1-1.5-6.9-1.1-9.9-3.1c-1.1-0.7-2.3-0.3-2.8,0.7c-0.7,1.2,0.1,2.3,1.2,2.5c3,0.5,5,2.9,7.7,3.7c0.3,1,1.1,1.3,2,1.7c4.7,2.8,11.1,0.9,15,5.6c1.7,1.7,5.7,2.8,4.9,4.8c-1,2.3-2.8,5.6-5.7,6.3c-6.9,1.6-12.2,6.4-19,8.1c-2.4,0.6-4.4,1.6-5.3,4.9c-1,3.5-5.6,3.6-8.8,4.1c-11.2,1.6-21.6,5.5-31.6,10.5c-3.8,1.9-6.7,5.7-10.4,8.3c-2,1.5-3.7,2.4-6.2,2.4c-23.1,0-46.2,0.6-69.3-0.5c-7.3-0.3-14.8-0.7-22.1-1.9c-4.1-0.7-7.8-3.2-12.2-3.8c-2.6-0.4-2.3-3.1-1-4.9c2.2-2.9,5.5-5.5,6.9-8.6c3.9-8.3,12.7-10.3,18.4-16.1c2-2,5-1.6,7.6-1.9c4.7-0.5,9.3-1.4,13.1-4.5c1.1-0.9,1.9-2,1.2-3.7c-0.8-1.8-2.3-1.6-3.6-1.1c-6.3,2.3-12.8,2.8-19.4,2.7c-5.4-0.1-5.9,0.6-4.4,5.7c0.3,1.1,0.7,2.7-0.9,2.4c-3.4-0.5-5.9,1.7-8.8,2.5c-3.6,1-5-0.5-5.1-3.9c0-1.2,0.2-2.5,0.6-3.7c0.9-3,0.7-5.8-2.1-7.5c-2.5-1.5-5.4-1.1-7.9,0.5c-1.5,0.9-2.8,2.8-4.9,1.4c-1.9-1.2-2.6-3-2.4-5.3c0.6-7.7,2.9-14.9,6.6-21.6c2.3-4.1,4.3-8.2,5.2-12.8c0.1-0.8,0.6-1.6-0.3-2c-0.8-0.3-1.4,0-2,0.6c-2.3,2.3-5.3,3.5-8.1,5.1c-2.6,1.5-3.3,5.8-3.1,8.2c0.7,7.9-3.5,14.4-4.3,21.9c-1.1,9.6,1.2,13.8,11.3,15.5c2.5,0.4,4.8,0.8,6.7,2.8c2,2.3,1.7,4.8-1.1,5.2c-8.9,1.2-17.8,3.9-26.9,0.3c-4.8-1.9-7.7-5.7-10.2-9.4c-4.7-6.9-11.9-11.2-16.4-18.1c-1.8-2.7-2.4-5.6-3.6-8.3c-2.2-5.3-5.9-9.7-8.5-14.7c-3.5-7-6.6-14.2-11.2-20.6c-3.3-4.6-6.7-10.2-11.2-12.3c-4.5-2.1-7.2-5.5-10.7-8.2c-5.4-4.2-7.1-11.1-10.1-16.9c-1-1.8-1.7-4-2.8-5.8c-3-4.9-3.2-12.8,0-17.5c1.1-1.7,2.5-3.3,2.8-5.4c2.7-1,3.9-2.9,3.5-5.7c-0.3-2.4-2.2-1.7-3.6-1.8c-0.3-0.4-0.5-0.8-0.8-1.2c-5.1-6.1-4.6-8.5,3.6-9.7c7.3-1.1,14.8-1.8,22.1,1c4,1.5,8.4,2.1,12.8,2.4c2.5,2.9,6.3,3.6,9.3,5.7c0.1,0.3,0.2,0.6,0.3,0.9c0.1,0.8-0.5,1.8,0.8,2.2c0.8,0.5,1.5,1,2.3,1.5c-0.1,0.1-0.2,0.1-0.4,0.2c0.1,0.1,0.1,0.2,0.2,0.3c0.5,0.1,1,0.3,1.6,0.4c1.9,2.7,4.8,1.9,7.5,2.1c0.9,0.4,0.7,1.9,2,2c1.4,2.9,4.5,1.3,6.7,2.7c3.2,2,4.7,0.5,5.8-3c2.1-6.2,2.5-12.7,5.3-18.9c5.4-11.8,16.3-16.2,26.5-19.8c7.3-2.6,16.2-3.6,24.5-2.4c1.4,3.7,4.3,4.2,7.6,3.5c2.8-0.6,1.6-2.9,1.8-4.6c0.5-0.7,1.3-1.4,1.6-2.2c0.5-1.6,1.2-3.6-0.5-4.7c-1.5-1-2.2,0.7-3.2,1.8c-1.6,1.8-3.9,1.1-5.6,0.1c-2.3-1.4-4.8-1.2-7.2-1.5c-3-0.4-5.3,1.6-8.2,1.8c-6.9,0.5-13.6,1.5-19.3,6c-4.6,3.6-11.3,3.3-15,8.6c-0.4,0.5-1.8,0.5-2.7,0.5c-4.4-0.2-5.4,2.8-5.8,6.3c-0.2,1.4-0.1,2.8,0,4.2c0.1,2.6-0.7,5.3-3.3,5.3c-2.6,0-2.7-3.1-2.7-5.2c-0.1-3.2-0.7-5.9-2.6-8.7c-2.3-3.4-5.2-3-7-1.1c-1.7,1.8,0.5,3.9,2.6,5.2c2.8,1.8,1.5,4.8,1.5,7.4c0,2.4-2.1,1.7-3.5,2c-1.7-0.5-2.5,1.2-3.8,1.7c-0.7-2.5,0.5-5.3-1.5-7.6c-0.8-0.9-0.7-2.5,0.4-3.9c1.2-1.6,1.7-3.8,0-5c-1.8-1.1-4.4-1-6.3-0.1c-1.7,0.8-2.2,2.9-1.5,5c0.4,1.2,0.9,2.4,1,3.6c0.1,1.4,0.9,3.2-1.7,3.6c-2.4,0.3-4.1-0.1-3.9-3c0.2-1.4,0.5-2.8,0.5-4.2c0-1.1,2.7-2,0.3-3.4c-1.9-1.1-3.2-0.2-4.4,1.2c-1.9,2.2-3.6,4.1-6.8,5.3c-3.5,1.3-6.1,1.4-9.1-0.1c-0.8-0.4-1.8-0.8-2.7-0.7c-2.7,0.1-3.4-1.2-3.3-3.8c0.2-3.3,0.1-6.6-0.1-9.9c-0.1-1.2,0.2-3.3-1.8-3.2c-1.4,0.1-2.3,1.4-2.7,2.9c-0.4,1.7-0.3,4.7-2.6,3.9c-1.8-0.6-2.8-2.8-1.7-6c1.6-4.6,4.3-9.8,0.7-15.1c-2-2.9-0.9-6.1,1.3-9c3.7-4.8,5.3-10.5,6.1-16.5c5-1.7,3.4-6,3.7-9.5c2.1-3.4,5.4-5.3,8.4-7.6c4.2,0.4,6.9-0.9,6.6-5.7c-0.1-2.9,2.6-5.2,2-8.3C70.7,155.8,71.1,151.9,74.3,149.9z M151.4,309.1c-1-2.7-1.6-5.9-2.4-9.1c-0.4-1.4-1.8-2.9-3.9-2.9c-1.5,0-2.6-1.1-3.8-1.3c-2.6-0.4-5.6-5-7.6-1.1c-1.7,3.2,3.1,4.7,5.2,5.7c4.1,1.9,5,4.9,5.4,8.7c0.5,5-1.2,9.8-2.9,14.1c-2.2,5.5,0.3,9.3,2.1,13.6c0.7,1.6,1.9,3.7,3.9,2.7c2.1-1,2.1-3,1.3-5.3c-1.7-4.8-1.8-9.6,0.3-14.6C150.3,316.5,150.5,312.9,151.4,309.1z M179.4,215.4c0,0,0-0.5-0.3-0.9c-2.8-3.9-6.5-7.1-9.3-11.2c-0.9-1.3-2.7-0.8-3.6,1.1c-1.1,2.4-0.3,4.2,1.3,5.8c2.6,2.6,5.3,5.1,8,7.5c0.6,0.6,1.2,2.2,2.6,0.8C178.8,217.9,179.6,217.1,179.4,215.4z M293,377.5c3.3,1.3,4.2-0.5,5.4-2.5C295.4,373.8,294.7,376,293,377.5z" style="fill: rgb(51, 51, 51);"></path><path d="M325.2,370.7c8.7-3.9,16.7-8.6,22.8-16.4c3.1-4,8.1-6.5,13-6.1c8.3,0.7,14.9-2.8,20.9-7.2c8.5-6.2,18.2-8.3,28.1-9.6c3.5-0.4,7.4-0.3,11-0.3c3.1,0,4.6,3.2,7.3,4.5c3,1.4,6,3.6,8.5,6.3c3.2,3.5,3.1,6.4-0.9,8.7c-1.8,1-3.3,2.1-3.4,4.6c-0.1,2.8,2.3,1.9,3.6,2.7c3.4,1.9,4.4,6.1,1.7,9.1c-5.2,5.7-10.4,11.7-19.2,11.2c-2.3-0.1-3.8,1.4-5.6,2.1c-10.2,4.4-21.3,6.3-31.4,11c-5.9,2.8-12.4,3.9-18.5,6.1c-4.8,1.7-10.4,2.5-14.1,7c-0.8,0.9-2,2.1-3.6,1.9c-7-0.7-12.8,3.6-19.3,4.8c-2.4,0.4-5.2,2.5-6.4-0.9c-1.2-3.3,2-5,4.5-5.4c4.2-0.7,6.9-3.2,9.8-5.7c3.6-3.1,5.2-6.8,4.3-11.5c0.7-3.7-2-3.9-4.4-3.6c-4.2,0.5-6.7-2.2-8.7-5c-1.1-1.5,0.5-4.2-2-5.4c0-0.4,0-0.7,0-1.1l0-0.1C324.4,372.4,325,371.8,325.2,370.7z" style="fill: rgb(51, 51, 51);"></path></g></svg>